<svg width="40" height="28" viewBox="0 0 40 28" fill="none" xmlns="http://www.w3.org/2000/svg">
<g opacity="0.4">
<path d="M38 11.9593C38 11.9593 32 4.13184 20 4.13184C8 4.13184 2 11.9593 2 11.9593" stroke="#9DE0FF" stroke-width="3" stroke-linecap="round"/>
<path d="M27.326 13.5248C27.326 17.5717 24.0459 20.8523 19.9999 20.8523C15.9539 20.8523 12.6738 17.5717 12.6738 13.5248C12.6738 9.47781 15.9539 6.19727 19.9999 6.19727C24.0459 6.19727 27.326 9.47781 27.326 13.5248Z" fill="#9DE0FF" stroke="#9DE0FF"/>
<path d="M27.0434 9.61101C27.0434 11.7725 25.2914 13.5248 23.1303 13.5248C20.9692 13.5248 19.2173 11.7725 19.2173 9.61101C19.2173 7.44951 20.9692 5.69727 23.1303 5.69727C25.2914 5.69727 27.0434 7.44951 27.0434 9.61101Z" fill="white"/>
<path d="M8.11468 1.56497C7.50985 0.960025 6.52922 0.960025 5.92438 1.56497C5.31955 2.16991 5.31955 3.15071 5.92438 3.75566L29.1668 27.0023C29.7717 27.6072 30.7523 27.6072 31.3571 27.0023C31.962 26.3973 31.962 25.4165 31.3571 24.8116L8.11468 1.56497Z" fill="#9DE0FF" stroke="#D9F1FF" stroke-width="0.75"/>
</g>
</svg>
